<svg class="svg-icon" style="width: 1em; height: 1em;vertical-align: middle;fill: currentColor;overflow: hidden;" viewBox="0 0 1024 1024" version="1.1" xmlns="http://www.w3.org/2000/svg"><path d="M512 42.666667C298.666667 42.666667 128 213.333333 128 426.666667L128 725.333333C128 796.16 185.173333 853.333333 256 853.333333L384 853.333333 384 512 213.333333 512 213.333333 426.666667C213.333333 261.546667 346.88 128 512 128 677.12 128 810.666667 261.546667 810.666667 426.666667L810.666667 512 640 512 640 853.333333 810.666667 853.333333 810.666667 896 512 896 512 981.333333 768 981.333333C838.826667 981.333333 896 924.16 896 853.333333L896 426.666667C896 213.333333 724.053333 42.666667 512 42.666667Z"  /></svg>