<svg class="svg-icon" style="width: 1em; height: 1em;vertical-align: middle;fill: currentColor;overflow: hidden;" viewBox="0 0 1024 1024" version="1.1" xmlns="http://www.w3.org/2000/svg"><path d="M85.333333 341.333333a85.333333 85.333333 0 0 1 85.333334-85.333333h682.666666a85.333333 85.333333 0 0 1 85.333334 85.333333v341.333334a85.333333 85.333333 0 0 1-85.333334 85.333333H170.666667a85.333333 85.333333 0 0 1-85.333334-85.333333V341.333333z m640 256v85.333334h128v-85.333334h-128z m-128 0v85.333334h85.333334v-85.333334h-85.333334z m-298.666666 0v85.333334h256v-85.333334H298.666667z m-128 0v85.333334h85.333333v-85.333334H170.666667z m597.333333-128v85.333334h85.333333v-85.333334h-85.333333z m-128 0v85.333334h85.333333v-85.333334h-85.333333z m-128 0v85.333334h85.333333v-85.333334h-85.333333z m-128 0v85.333334h85.333333v-85.333334H384z m-213.333333 0v85.333334h170.666666v-85.333334H170.666667z m512-128v85.333334h170.666666V341.333333h-170.666666z m-128 0v85.333334h85.333333V341.333333h-85.333333z m-128 0v85.333334h85.333333V341.333333h-85.333333zM298.666667 341.333333v85.333334h85.333333V341.333333H298.666667zM170.666667 341.333333v85.333334h85.333333V341.333333H170.666667z" fill="#000000" /></svg>