<?xml version="1.0" encoding="UTF-8" standalone="no"?>
<svg
   class="svg-icon"
   style="width: 1em; height: 1em;vertical-align: middle;fill: currentColor;overflow: hidden;"
   viewBox="0 0 1024 1024"
   version="1.1"
   id="svg1"
   sodipodi:docname="mic.svg"
   inkscape:version="1.4.2 (f4327f4, 2025-05-13)"
   xmlns:inkscape="http://www.inkscape.org/namespaces/inkscape"
   xmlns:sodipodi="http://sodipodi.sourceforge.net/DTD/sodipodi-0.dtd"
   xmlns="http://www.w3.org/2000/svg"
   xmlns:svg="http://www.w3.org/2000/svg">
  <defs
     id="defs1" />
  <sodipodi:namedview
     id="namedview1"
     pagecolor="#505050"
     bordercolor="#eeeeee"
     borderopacity="1"
     inkscape:showpageshadow="0"
     inkscape:pageopacity="0"
     inkscape:pagecheckerboard="0"
     inkscape:deskcolor="#505050"
     inkscape:zoom="1.1396484"
     inkscape:cx="511.56127"
     inkscape:cy="512"
     inkscape:window-width="2560"
     inkscape:window-height="1369"
     inkscape:window-x="1912"
     inkscape:window-y="-8"
     inkscape:window-maximized="1"
     inkscape:current-layer="svg1" />
  <path
     d="m 864.28076,434.55814 v 78.46258 c 0,90.31572 -30.14819,168.7783 -90.31572,235.51659 -60.29636,66.86712 -134.76496,105.13212 -223.40577,114.795 v 80.78168 h 156.79632 c 10.56475,0 19.84112,3.86514 27.57141,11.59545 7.73031,7.73031 11.59547,16.87784 11.59547,27.57141 0,10.56475 -3.86516,19.84115 -11.59547,27.57145 -7.73029,7.7303 -17.00666,11.5954 -27.57141,11.5954 H 315.30037 c -10.56475,0 -19.84112,-3.8651 -27.57143,-11.5954 -7.7303,-7.7303 -11.59545,-17.0067 -11.59545,-27.57145 0,-10.56475 3.86515,-19.8411 11.59545,-27.57141 7.73031,-7.73031 16.87784,-11.59545 27.57143,-11.59545 H 472.09668 V 863.33231 C 383.45588,853.5406 308.98728,815.2756 248.81975,748.40847 188.52338,681.67018 158.50404,603.07876 158.50404,512.76304 v -78.46258 c 0,-10.56475 3.86515,-19.84111 11.59546,-27.57141 7.73029,-7.73031 16.87782,-11.59545 27.57141,-11.59545 10.56475,0 19.84111,3.86514 27.57142,11.59545 7.7303,7.7303 11.59545,17.00666 11.59545,27.57141 v 78.46258 c 0,75.49931 26.79839,140.17617 80.524,193.90179 53.7256,53.72561 118.27364,80.65283 193.90178,80.65283 75.49929,0 140.17617,-26.79838 193.90178,-80.524 53.85445,-53.72561 80.65283,-118.1448 80.65283,-193.90178 V 434.4293 c 0,-10.56475 3.86515,-19.84111 11.59546,-27.57141 7.73031,-7.73031 16.87782,-11.59546 27.57141,-11.59546 10.56475,0 19.84112,3.86515 27.57142,11.59546 7.85915,7.85913 11.7243,17.00666 11.7243,27.70025 z M 707.48443,199.29923 v 313.59265 c 0,53.85445 -19.19692,100.10744 -57.59076,138.50127 -38.39384,38.39385 -84.51798,57.59077 -138.50127,57.59077 -53.98329,0 -100.10743,-19.19692 -138.50127,-57.59077 -38.39385,-38.39383 -57.59076,-84.38914 -57.59076,-138.50127 V 199.29923 c 0,-53.85444 19.19691,-100.107429 57.59076,-138.50127 38.39384,-38.393841 84.51798,-57.5907621 138.50127,-57.5907621 53.98329,0 100.10743,19.1969211 138.50127,57.5907621 38.265,38.393841 57.59076,84.51799 57.59076,138.50127 z"
     id="path1"
     style="stroke-width:1.28838" />
</svg>
