<?xml version="1.0" encoding="UTF-8" standalone="no"?>
<svg
   class="svg-icon"
   style="width: 1em; height: 1em;vertical-align: middle;fill: currentColor;overflow: hidden;"
   viewBox="0 0 1024 1024"
   version="1.1"
   id="svg1"
   sodipodi:docname="mic_muted.svg"
   inkscape:version="1.4.2 (f4327f4, 2025-05-13)"
   xmlns:inkscape="http://www.inkscape.org/namespaces/inkscape"
   xmlns:sodipodi="http://sodipodi.sourceforge.net/DTD/sodipodi-0.dtd"
   xmlns="http://www.w3.org/2000/svg"
   xmlns:svg="http://www.w3.org/2000/svg">
  <defs
     id="defs1" />
  <sodipodi:namedview
     id="namedview1"
     pagecolor="#505050"
     bordercolor="#eeeeee"
     borderopacity="1"
     inkscape:showpageshadow="0"
     inkscape:pageopacity="0"
     inkscape:pagecheckerboard="0"
     inkscape:deskcolor="#505050"
     inkscape:zoom="1.1396484"
     inkscape:cx="511.56127"
     inkscape:cy="512"
     inkscape:window-width="2560"
     inkscape:window-height="1369"
     inkscape:window-x="1912"
     inkscape:window-y="-8"
     inkscape:window-maximized="1"
     inkscape:current-layer="svg1" />
  <path
     d="M 928.33546,213.34262 707.24878,434.55814 v 78.46258 c 0,53.85445 -19.19692,100.10743 -57.59076,138.50127 -38.39385,38.39385 -84.51799,57.59076 -138.50127,57.59076 -22.41788,0 -44.70692,-3.86515 -66.73829,-11.59545 l -58.75032,58.87914 c 39.5534,20.87182 81.42588,31.1789 125.61745,31.1789 75.49929,0 140.17617,-26.79839 193.90178,-80.524 53.59676,-53.85445 80.39516,-118.40248 80.39516,-194.03062 v -78.46258 c 0,-10.56475 3.86514,-19.84112 11.59545,-27.57141 7.73031,-7.73031 16.87783,-11.59546 27.57141,-11.59546 10.56475,0 19.84112,3.86515 27.57142,11.59546 7.7303,7.73029 11.59546,17.00666 11.59546,27.57141 v 78.33374 c 0,90.31572 -30.14819,168.7783 -90.31571,235.51659 C 713.43302,815.2756 638.96443,853.5406 550.32362,863.33231 v 80.78168 h 156.79632 c 10.56475,0 19.84112,3.86514 27.57141,11.59545 7.73031,7.73031 11.59546,16.87784 11.59546,27.57141 0,10.56475 -3.86515,19.84115 -11.59546,27.57145 -7.73029,7.7303 -17.00666,11.5954 -27.57141,11.5954 H 315.06471 c -10.56475,0 -19.84111,-3.8651 -27.57141,-11.5954 -7.73031,-7.7303 -11.59546,-17.0067 -11.59546,-27.57145 0,-10.56475 3.86515,-19.8411 11.59546,-27.57141 7.7303,-7.73031 16.87782,-11.59545 27.57141,-11.59545 H 471.86103 V 863.33231 C 420.84104,858.04993 372.78431,841.42979 327.94856,813.72954 L 172.44061,969.36631 c -4.12283,4.12283 -8.76101,6.18425 -14.04338,6.18425 -5.28238,0 -10.0494,-2.06142 -14.04339,-6.18425 L 94.106869,919.11934 c -4.122835,-4.12284 -6.184246,-8.76101 -6.184246,-14.04338 0,-5.28238 2.061411,-10.0494 6.184246,-14.0434 L 850.00173,135.13772 c 4.12282,-4.12284 8.761,-6.18425 14.04338,-6.18425 5.28237,0 10.04939,2.06141 14.04338,6.18425 l 50.24697,50.24697 c 4.12283,4.12282 6.18425,8.76101 6.18425,14.04338 -0.12884,5.15354 -2.06142,9.79172 -6.18425,13.91455 z M 245.87849,582.20694 184.03607,644.04937 C 166.90056,602.04805 158.26838,558.243 158.26838,512.89188 v -78.59142 c 0,-10.56475 3.86516,-19.84111 11.59547,-27.57141 7.73029,-7.73031 16.87782,-11.59545 27.57141,-11.59545 10.56475,0 19.84111,3.86514 27.57141,11.59545 7.73031,7.7303 11.59545,17.00666 11.59545,27.57141 v 78.46258 c 0.12884,21.77369 3.22097,44.9646 9.27637,69.4439 z M 695.52449,132.4321 315.06471,512.89188 V 199.29923 c 0,-53.85444 19.19692,-100.107429 57.59076,-138.50127 38.39385,-38.393841 84.51799,-57.5907621 138.50128,-57.5907621 41.61479,0 79.36445,12.1108091 112.99127,36.2035891 33.75566,24.092779 57.46192,55.142832 71.37647,93.021313 z"
     id="path1"
     style="stroke-width:1.28838" />
</svg>
