<?xml version="1.0" encoding="UTF-8" standalone="no"?>
<svg
   class="svg-icon"
   style="width: 1em;height: 1em;vertical-align: middle;fill: currentColor;overflow: hidden;"
   viewBox="0 0 1024 1024"
   version="1.1"
   id="svg1"
   sodipodi:docname="panel_volume_100.svg"
   inkscape:version="1.4.2 (f4327f4, 2025-05-13)"
   xmlns:inkscape="http://www.inkscape.org/namespaces/inkscape"
   xmlns:sodipodi="http://sodipodi.sourceforge.net/DTD/sodipodi-0.dtd"
   xmlns="http://www.w3.org/2000/svg"
   xmlns:svg="http://www.w3.org/2000/svg">
  <defs
     id="defs1" />
  <sodipodi:namedview
     id="namedview1"
     pagecolor="#505050"
     bordercolor="#eeeeee"
     borderopacity="1"
     inkscape:showpageshadow="0"
     inkscape:pageopacity="0"
     inkscape:pagecheckerboard="0"
     inkscape:deskcolor="#505050"
     inkscape:zoom="1.1396484"
     inkscape:cx="511.56127"
     inkscape:cy="512"
     inkscape:window-width="2560"
     inkscape:window-height="1369"
     inkscape:window-x="1912"
     inkscape:window-y="-8"
     inkscape:window-maximized="1"
     inkscape:current-layer="svg1" />
  <path
     d="m 867.06087,909.35652 c -8.90435,10.01739 -21.14783,14.46957 -33.3913,14.46957 -10.0174,0 -21.14783,-3.33913 -30.05218,-11.13044 C 785.80869,896 783.58261,868.17391 800.27826,850.36522 924.93913,710.12174 963.89565,554.29565 913.8087,388.45217 875.96522,261.56522 801.39131,176.97391 800.27826,175.86087 c -16.69565,-17.8087 -14.46956,-46.74783 3.33913,-62.33043 17.8087,-16.695657 46.74783,-14.46957 63.44348,3.33913 3.33913,2.22608 350.60873,399.5826 0,792.48695 z"
     id="path5" />
  <path
     d="m 726.81739,819.2 c -8.90435,10.01739 -21.14782,14.46957 -33.3913,14.46957 -10.01739,0 -21.14783,-3.33913 -30.05218,-11.13044 -17.80869,-16.69565 -20.03478,-44.52174 -3.33913,-62.33043 219.26957,-245.98261 8.90435,-486.4 0,-496.4174 -16.69565,-18.92173 -14.46956,-46.74782 3.33913,-63.44347 17.8087,-16.69566 46.74783,-14.46957 63.44348,3.33913 2.22609,3.33913 271.58261,311.65217 0,615.51304 z"
     id="path4" />
  <path
     d="m 592.13913,700.10435 c -8.90435,10.01739 -21.14783,14.46956 -33.3913,14.46956 -10.01739,0 -21.14783,-3.33913 -30.05218,-11.13043 -17.80869,-16.69565 -20.03478,-44.52174 -3.33913,-62.33044 111.30435,-124.66087 11.13044,-244.86956 0,-258.22608 -16.69565,-18.92174 -14.46956,-46.74783 3.33913,-62.33044 17.8087,-16.69565 46.74783,-14.46956 62.33044,3.33913 58.9913,64.55652 134.67826,227.06087 1.11304,376.2087 z"
     id="path3" />
  <path
     d="M 356.17391,826.9913 201.46087,670.05217 c -8.90435,-8.90434 -17.8087,-13.35652 -30.05217,-13.35652 H 89.043478 V 367.30435 H 171.4087 c 12.24347,0 21.14782,-4.45218 30.05217,-13.35652 L 356.17391,197.0087 Z"
     id="path2" />
  <path
     d="M 419.61739,47.86087 C 402.92174,41.182609 385.11304,44.52174 371.75652,57.878261 L 152.48696,278.26087 H 44.521739 C 20.034782,278.26087 0,298.29565 0,322.78261 v 378.43478 c 0,24.48696 20.034783,44.52174 44.521739,44.52174 H 153.6 l 219.26956,220.38261 c 8.90435,8.90435 20.03479,13.35652 31.16522,13.35652 5.56522,0 10.01739,-1.11304 15.58261,-3.33913 16.69565,-6.67826 25.6,-23.37391 25.6,-41.18261 V 89.043478 c 0,-17.808696 -8.90435,-34.504348 -25.6,-41.182608 z"
     id="path1" />
</svg>
