<?xml version="1.0" encoding="UTF-8" standalone="no"?>
<svg
   class="svg-icon"
   style="width: 1em;height: 1em;vertical-align: middle;fill: currentColor;overflow: hidden;"
   viewBox="0 0 1024 1024"
   version="1.1"
   id="svg1"
   sodipodi:docname="panel_volume_0.svg"
   inkscape:version="1.4.2 (f4327f4, 2025-05-13)"
   xmlns:inkscape="http://www.inkscape.org/namespaces/inkscape"
   xmlns:sodipodi="http://sodipodi.sourceforge.net/DTD/sodipodi-0.dtd"
   xmlns="http://www.w3.org/2000/svg"
   xmlns:svg="http://www.w3.org/2000/svg">
  <defs
     id="defs1" />
  <sodipodi:namedview
     id="namedview1"
     pagecolor="#505050"
     bordercolor="#eeeeee"
     borderopacity="1"
     inkscape:showpageshadow="0"
     inkscape:pageopacity="0"
     inkscape:pagecheckerboard="0"
     inkscape:deskcolor="#505050"
     inkscape:zoom="1.1396484"
     inkscape:cx="511.56129"
     inkscape:cy="512.00002"
     inkscape:window-width="2560"
     inkscape:window-height="1369"
     inkscape:window-x="1912"
     inkscape:window-y="-8"
     inkscape:window-maximized="1"
     inkscape:current-layer="svg1" />
  <path
     d="m 944.97391,645.56522 c 16.69566,17.80869 16.69566,45.63478 -1.11304,63.44348 -8.90435,7.7913 -20.03478,12.24347 -31.16522,12.24347 -11.13043,0 -23.37391,-4.45217 -32.27826,-13.35652 l -128,-132.45217 -128,132.45217 c -8.90435,8.90435 -20.03478,13.35652 -32.27826,13.35652 -11.13043,0 -22.26087,-4.45217 -31.16522,-12.24347 -17.80869,-16.69566 -17.80869,-45.63479 -1.11304,-63.44348 L 690.08696,512 560.97391,378.43478 C 544.27826,360.62609 544.27826,332.8 562.08696,314.9913 c 17.80869,-16.69565 45.63478,-16.69565 63.44347,1.11305 l 128,131.33913 128,-131.33913 c 16.69566,-17.8087 45.63479,-17.8087 63.44348,-1.11305 17.8087,16.69566 17.8087,45.63479 1.11305,63.44348 L 814.74783,512 Z"
     id="path3" />
  <path
     d="m 356.17391,825.87826 -153.6,-155.82609 c -8.90434,-8.90434 -22.26087,-13.35652 -34.50434,-13.35652 H 89.043479 v -289.3913 h 80.139131 c 12.24348,0 25.6,-5.56522 34.50435,-13.35652 L 356.17391,198.12174 Z"
     id="path2" />
  <path
     d="M 415.16522,47.86087 C 398.46957,41.182609 378.43478,45.634783 365.07826,57.878261 L 150.26087,278.26087 H 44.521739 C 20.034782,278.26087 0,298.29565 0,322.78261 v 378.43478 c 0,24.48696 20.034783,44.52174 44.521739,44.52174 H 150.26087 l 213.70435,220.38261 c 8.90435,8.90435 20.03478,13.35652 32.27826,13.35652 5.56522,0 13.35652,-1.11304 18.92174,-3.33913 16.69565,-6.67826 30.05217,-23.37391 30.05217,-41.18261 V 89.043478 c 0,-17.808696 -13.35652,-34.504348 -30.05217,-41.182608 z"
     id="path1" />
</svg>
