<svg class="svg-icon" style="width: 1em;height: 1em;vertical-align: middle;fill: currentColor;overflow: hidden;" viewBox="0 0 1024 1024" version="1.1" xmlns="http://www.w3.org/2000/svg"><path d="M419.617391 47.86087c-16.695652-6.678261-34.504348-3.33913-47.860869 10.017391L152.486957 278.26087H44.521739c-24.486957 0-44.521739 20.034783-44.521739 44.521739v378.434782c0 24.486957 20.034783 44.521739 44.521739 44.521739h109.078261l219.269565 220.382609c8.904348 8.904348 20.034783 13.356522 31.165218 13.356522 5.565217 0 10.017391-1.113043 15.582608-3.339131 16.695652-6.678261 25.6-23.373913 25.6-41.182608V89.043478c0-17.808696-8.904348-34.504348-25.6-41.182608z m-63.443478 779.130434L201.46087 670.052174c-8.904348-8.904348-17.808696-13.356522-30.052174-13.356522H89.043478V367.304348h82.365218c12.243478 0 21.147826-4.452174 30.052174-13.356522L356.173913 197.008696v629.982608z m235.965217-126.886956c-8.904348 10.017391-21.147826 14.469565-33.391304 14.469565-10.017391 0-21.147826-3.33913-30.052174-11.130435-17.808696-16.695652-20.034783-44.521739-3.33913-62.330435 111.304348-124.66087 11.130435-244.869565 0-258.226086-16.695652-18.921739-14.469565-46.747826 3.33913-62.330435 17.808696-16.695652 46.747826-14.469565 62.330435 3.33913 58.991304 64.556522 134.678261 227.06087 1.113043 376.208696z m134.678261 119.095652c-8.904348 10.017391-21.147826 14.469565-33.391304 14.469565-10.017391 0-21.147826-3.33913-30.052174-11.130435-17.808696-16.695652-20.034783-44.521739-3.33913-62.330434 219.269565-245.982609 8.904348-486.4 0-496.417392-16.695652-18.921739-14.469565-46.747826 3.33913-63.443478s46.747826-14.469565 63.443478 3.339131c2.226087 3.33913 271.582609 311.652174 0 615.513043z m140.243479 90.156522c-8.904348 10.017391-21.147826 14.469565-33.391305 14.469565-10.017391 0-21.147826-3.33913-30.052174-11.130435-17.808696-16.695652-20.034783-44.521739-3.33913-62.330435 124.66087-140.243478 163.617391-296.069565 113.530435-461.913043-37.843478-126.886957-112.417391-211.478261-113.530435-212.591304-16.695652-17.808696-14.469565-46.747826 3.33913-62.330435 17.808696-16.695652 46.747826-14.469565 63.443479 3.33913 3.33913 2.226087 350.608696 399.582609 0 792.486957z"  /></svg>