<?xml version="1.0" encoding="UTF-8" standalone="no"?>
<svg
   class="svg-icon"
   style="width: 1em;height: 1em;vertical-align: middle;fill: currentColor;overflow: hidden;"
   viewBox="0 0 1024 1024"
   version="1.1"
   id="svg1"
   sodipodi:docname="volume-medium-16.svg"
   inkscape:version="1.4.2 (f4327f4, 2025-05-13)"
   xmlns:inkscape="http://www.inkscape.org/namespaces/inkscape"
   xmlns:sodipodi="http://sodipodi.sourceforge.net/DTD/sodipodi-0.dtd"
   xmlns="http://www.w3.org/2000/svg"
   xmlns:svg="http://www.w3.org/2000/svg">
  <defs
     id="defs1" />
  <sodipodi:namedview
     id="namedview1"
     pagecolor="#505050"
     bordercolor="#eeeeee"
     borderopacity="1"
     inkscape:showpageshadow="0"
     inkscape:pageopacity="0"
     inkscape:pagecheckerboard="0"
     inkscape:deskcolor="#505050"
     inkscape:zoom="1.1396484"
     inkscape:cx="512"
     inkscape:cy="512"
     inkscape:window-width="2560"
     inkscape:window-height="1369"
     inkscape:window-x="1912"
     inkscape:window-y="-8"
     inkscape:window-maximized="1"
     inkscape:current-layer="svg1" />
  <path
     d="M 418.50435,47.86087 C 401.8087,41.182609 382.88696,44.52174 370.64348,57.878261 L 152.48696,278.26087 H 44.521739 C 20.034782,278.26087 0,298.29565 0,322.78261 v 378.43478 c 0,24.48696 20.034783,44.52174 44.521739,44.52174 H 152.48696 l 219.26956,220.38261 c 8.90435,8.90435 20.03478,13.35652 31.16522,13.35652 5.56522,0 10.01739,-1.11304 15.58261,-3.33913 16.69565,-6.67826 26.71304,-23.37391 26.71304,-41.18261 V 89.043478 C 445.21739,71.234782 435.2,54.53913 418.50435,47.86087 Z M 356.17391,826.9913 201.46087,670.05217 c -8.90435,-8.90434 -18.92174,-13.35652 -30.05217,-13.35652 H 89.043479 V 367.30435 H 171.4087 c 12.24347,0 22.26087,-4.45218 30.05217,-13.35652 L 356.17391,197.0087 Z M 591.02609,700.10435 c -8.90435,10.01739 -21.14783,14.46956 -33.39131,14.46956 -10.01739,0 -21.14782,-3.33913 -30.05217,-11.13043 -18.92174,-16.69565 -20.03478,-44.52174 -3.33913,-62.33044 111.30435,-124.66087 11.13043,-244.86956 0,-258.22608 -16.69565,-18.92174 -14.46957,-46.74783 4.45217,-62.33044 18.92174,-16.69565 46.74783,-14.46956 62.33044,3.33913 57.87826,64.55652 132.45217,227.06087 0,376.2087 z M 724.5913,819.2 c -8.90434,10.01739 -21.14782,14.46957 -33.3913,14.46957 -10.01739,0 -21.14783,-3.33913 -30.05217,-11.13044 -18.92174,-16.69565 -20.03479,-44.52174 -3.33913,-62.33043 218.15652,-243.75653 8.90434,-486.4 0,-496.4174 -16.69566,-18.92173 -14.46957,-46.74782 3.33913,-62.33043 18.92173,-16.69565 46.74782,-14.46956 62.33043,3.33913 4.45217,2.22609 272.69565,310.53913 1.11304,614.4 z"
     id="path1" />
</svg>
