<svg class="svg-icon" style="width: 1em;height: 1em;vertical-align: middle;fill: currentColor;overflow: hidden;" viewBox="0 0 1024 1024" version="1.1" xmlns="http://www.w3.org/2000/svg"><path d="M185.429333 367.168c-8.021333 10.069333-16.106667 20.181333-24.362666 30.293333l-66.133334-53.888c7.829333-9.621333 15.786667-19.648 23.893334-29.930666C199.68 211.626667 299.712 85.333333 514.026667 85.333333 747.946667 85.333333 938.666667 276.373333 938.666667 512h-85.333334c0-188.8-152.832-341.333333-339.328-341.333333-171.626667 0-246.954667 94.293333-328.576 196.501333z" fill="#0A0A0A" /><path d="M85.333333 168.426667h85.333334v159.424h159.424v85.333333H85.333333V168.426667zM170.666667 512v2.026667C170.666667 700.8 321.472 853.333333 509.973333 853.333333c167.061333 0 242.389333-92.096 322.282667-189.76 10.24-12.522667 20.565333-25.130667 31.146667-37.653333l65.152 55.125333c-9.386667 11.093333-18.986667 22.933333-28.885334 35.2C820.437333 814.122667 719.658667 938.666667 509.973333 938.666667 274.048 938.666667 85.333333 747.626667 85.333333 514.026667V512h85.333334z" fill="#0A0A0A" /><path d="M693.888 610.816H938.666667v244.757333h-85.333334v-159.424h-159.445333v-85.333333z" fill="#0A0A0A" /></svg>